# MagicaVoxel @ Ephtracy

# group
g exit

# material
mtllib exit.mtl
usemtl palette

# normals
vn -1 0 0
vn 1 0 0
vn 0 0 1
vn 0 0 -1
vn 0 -1 0
vn 0 1 0

# texcoords
vt 0.220703 0.5
vt 0.224609 0.5
vt 0.228516 0.5
vt 0.232422 0.5

# verts
v -10 0 10
v -10 0 -10
v -10 1 10
v -10 1 -10
v -10 2 10
v -10 2 9
v -10 2 -10
v -10 16 10
v -10 16 9
v -10 16 -10
v -10 17 10
v -10 17 -10
v -10 18 10
v -10 18 9
v -10 18 -10
v -10 23 10
v -10 23 9
v -10 23 -10
v -10 24 10
v -10 24 -10
v -10 25 10
v -10 25 -10
v 8 3 9
v 8 3 7
v 8 4 7
v 8 4 4
v 8 5 4
v 8 5 2
v 8 6 2
v 8 6 -0
v 8 7 -0
v 8 7 -2
v 8 8 -2
v 8 8 -4
v 8 9 -4
v 8 9 -6
v 8 10 -6
v 8 10 -9
v 8 16 9
v 8 16 -9
v -8 3 9
v -8 3 7
v -8 4 7
v -8 4 4
v -8 5 4
v -8 5 2
v -8 6 2
v -8 6 -0
v -8 7 -0
v -8 7 -2
v -8 8 -2
v -8 8 -4
v -8 9 -4
v -8 9 -6
v -8 10 -6
v -8 10 -9
v -8 16 9
v -8 16 -9
v 10 0 10
v 10 0 -10
v 10 1 10
v 10 1 -10
v 10 2 10
v 10 2 9
v 10 2 -10
v 10 16 10
v 10 16 9
v 10 16 -10
v 10 17 10
v 10 17 -10
v 10 18 10
v 10 18 9
v 10 18 -10
v 10 23 10
v 10 23 9
v 10 23 -10
v 10 24 10
v 10 24 -10
v 10 25 10
v 10 25 -10
v -10 0 10
v -10 1 10
v -10 2 10
v -10 16 10
v -10 17 10
v -10 18 10
v -10 23 10
v -10 24 10
v -10 25 10
v -8 1 10
v -8 2 10
v -6 1 10
v -6 2 10
v 6 1 10
v 6 2 10
v 8 1 10
v 8 2 10
v 10 0 10
v 10 1 10
v 10 2 10
v 10 16 10
v 10 17 10
v 10 18 10
v 10 23 10
v 10 24 10
v 10 25 10
v -10 2 9
v -10 16 9
v -10 18 9
v -10 23 9
v -8 2 9
v -8 3 9
v -8 16 9
v -8 18 9
v -8 23 9
v -6 2 9
v -6 3 9
v 6 2 9
v 6 3 9
v 8 2 9
v 8 3 9
v 8 16 9
v 8 18 9
v 8 23 9
v 10 2 9
v 10 16 9
v 10 18 9
v 10 23 9
v -8 3 7
v -8 4 7
v -6 3 7
v -6 4 7
v 6 3 7
v 6 4 7
v 8 3 7
v 8 4 7
v -8 4 4
v -8 5 4
v -6 4 4
v -6 5 4
v 6 4 4
v 6 5 4
v 8 4 4
v 8 5 4
v -8 5 2
v -8 6 2
v -6 5 2
v -6 6 2
v 6 5 2
v 6 6 2
v 8 5 2
v 8 6 2
v -8 6 -0
v -8 7 -0
v -6 6 -0
v -6 7 -0
v 6 6 -0
v 6 7 -0
v 8 6 -0
v 8 7 -0
v -8 7 -2
v -8 8 -2
v -6 7 -2
v -6 8 -2
v 6 7 -2
v 6 8 -2
v 8 7 -2
v 8 8 -2
v -8 8 -4
v -8 9 -4
v -6 8 -4
v -6 9 -4
v 6 8 -4
v 6 9 -4
v 8 8 -4
v 8 9 -4
v -8 9 -6
v -8 10 -6
v -6 9 -6
v -6 10 -6
v 6 9 -6
v 6 10 -6
v 8 9 -6
v 8 10 -6
v -8 10 -9
v -8 16 -9
v -6 10 -9
v 6 10 -9
v 8 10 -9
v 8 16 -9
v -10 0 -10
v -10 1 -10
v -10 2 -10
v -10 16 -10
v -10 17 -10
v -10 18 -10
v -10 23 -10
v -10 24 -10
v -10 25 -10
v -9 1 -10
v -9 2 -10
v -8 2 -10
v -8 16 -10
v -8 17 -10
v -8 18 -10
v -8 23 -10
v 8 2 -10
v 8 16 -10
v 8 18 -10
v 8 23 -10
v 9 1 -10
v 9 2 -10
v 9 17 -10
v 9 18 -10
v 10 0 -10
v 10 1 -10
v 10 2 -10
v 10 16 -10
v 10 17 -10
v 10 18 -10
v 10 23 -10
v 10 24 -10
v 10 25 -10
v -10 0 10
v 10 0 10
v -10 0 -10
v 10 0 -10
v -10 16 10
v 10 16 10
v -10 16 9
v -8 16 9
v 8 16 9
v 10 16 9
v -8 16 -9
v 8 16 -9
v -10 23 10
v 10 23 10
v -10 23 9
v -8 23 9
v 8 23 9
v 10 23 9
v -10 2 10
v -8 2 10
v -6 2 10
v 6 2 10
v 8 2 10
v 10 2 10
v -10 2 9
v -8 2 9
v -6 2 9
v 6 2 9
v 8 2 9
v 10 2 9
v -8 3 9
v -6 3 9
v 6 3 9
v 8 3 9
v -8 3 7
v -6 3 7
v 6 3 7
v 8 3 7
v -8 4 7
v -6 4 7
v 6 4 7
v 8 4 7
v -8 4 4
v -6 4 4
v 6 4 4
v 8 4 4
v -8 5 4
v -6 5 4
v 6 5 4
v 8 5 4
v -8 5 2
v -6 5 2
v 6 5 2
v 8 5 2
v -8 6 2
v -6 6 2
v 6 6 2
v 8 6 2
v -8 6 -0
v -6 6 -0
v 6 6 -0
v 8 6 -0
v -8 7 -0
v -6 7 -0
v 6 7 -0
v 8 7 -0
v -8 7 -2
v -6 7 -2
v 6 7 -2
v 8 7 -2
v -8 8 -2
v -6 8 -2
v 6 8 -2
v 8 8 -2
v -8 8 -4
v -6 8 -4
v 6 8 -4
v 8 8 -4
v -8 9 -4
v -6 9 -4
v 6 9 -4
v 8 9 -4
v -8 9 -6
v -6 9 -6
v 6 9 -6
v 8 9 -6
v -8 10 -6
v -6 10 -6
v 6 10 -6
v 8 10 -6
v -8 10 -9
v -6 10 -9
v 6 10 -9
v 8 10 -9
v -10 18 10
v 10 18 10
v -10 18 9
v -8 18 9
v 8 18 9
v 10 18 9
v -10 25 10
v 10 25 10
v -10 25 -10
v 10 25 -10

# faces
f 3/3/1 2/3/1 1/3/1
f 4/3/1 2/3/1 3/3/1
f 5/1/1 4/1/1 3/1/1
f 6/1/1 4/1/1 5/1/1
f 7/1/1 4/1/1 6/1/1
f 9/2/1 7/2/1 6/2/1
f 10/2/1 7/2/1 9/2/1
f 11/3/1 9/3/1 8/3/1
f 11/3/1 10/3/1 9/3/1
f 12/3/1 10/3/1 11/3/1
f 13/1/1 12/1/1 11/1/1
f 14/1/1 12/1/1 13/1/1
f 15/1/1 12/1/1 14/1/1
f 17/2/1 15/2/1 14/2/1
f 18/2/1 15/2/1 17/2/1
f 19/3/1 17/3/1 16/3/1
f 19/3/1 18/3/1 17/3/1
f 20/3/1 18/3/1 19/3/1
f 21/1/1 20/1/1 19/1/1
f 22/1/1 20/1/1 21/1/1
f 25/2/1 24/2/1 23/2/1
f 27/2/1 26/2/1 25/2/1
f 29/2/1 28/2/1 27/2/1
f 31/2/1 30/2/1 29/2/1
f 33/2/1 32/2/1 31/2/1
f 35/2/1 34/2/1 33/2/1
f 37/2/1 36/2/1 35/2/1
f 39/2/1 25/2/1 23/2/1
f 39/2/1 38/2/1 37/2/1
f 39/2/1 37/2/1 35/2/1
f 39/2/1 35/2/1 33/2/1
f 39/2/1 33/2/1 31/2/1
f 39/2/1 31/2/1 29/2/1
f 39/2/1 29/2/1 27/2/1
f 39/2/1 27/2/1 25/2/1
f 40/2/1 38/2/1 39/2/1
f 41/2/2 42/2/2 43/2/2
f 43/2/2 44/2/2 45/2/2
f 45/2/2 46/2/2 47/2/2
f 47/2/2 48/2/2 49/2/2
f 49/2/2 50/2/2 51/2/2
f 51/2/2 52/2/2 53/2/2
f 53/2/2 54/2/2 55/2/2
f 41/2/2 43/2/2 57/2/2
f 55/2/2 56/2/2 57/2/2
f 53/2/2 55/2/2 57/2/2
f 51/2/2 53/2/2 57/2/2
f 49/2/2 51/2/2 57/2/2
f 47/2/2 49/2/2 57/2/2
f 45/2/2 47/2/2 57/2/2
f 43/2/2 45/2/2 57/2/2
f 57/2/2 56/2/2 58/2/2
f 59/3/2 60/3/2 61/3/2
f 61/3/2 60/3/2 62/3/2
f 61/1/2 62/1/2 63/1/2
f 63/1/2 62/1/2 64/1/2
f 64/1/2 62/1/2 65/1/2
f 64/2/2 65/2/2 67/2/2
f 67/2/2 65/2/2 68/2/2
f 66/3/2 67/3/2 69/3/2
f 67/3/2 68/3/2 69/3/2
f 69/3/2 68/3/2 70/3/2
f 69/1/2 70/1/2 71/1/2
f 71/1/2 70/1/2 72/1/2
f 72/1/2 70/1/2 73/1/2
f 72/2/2 73/2/2 75/2/2
f 75/2/2 73/2/2 76/2/2
f 74/3/2 75/3/2 77/3/2
f 75/3/2 76/3/2 77/3/2
f 77/3/2 76/3/2 78/3/2
f 77/1/2 78/1/2 79/1/2
f 79/1/2 78/1/2 80/1/2
f 90/3/3 82/3/3 81/3/3
f 90/1/3 83/1/3 82/1/3
f 91/1/3 83/1/3 90/1/3
f 92/3/3 90/3/3 81/3/3
f 92/3/3 91/3/3 90/3/3
f 93/3/3 91/3/3 92/3/3
f 94/3/3 92/3/3 81/3/3
f 94/1/3 93/1/3 92/1/3
f 95/1/3 93/1/3 94/1/3
f 96/3/3 94/3/3 81/3/3
f 96/3/3 95/3/3 94/3/3
f 97/3/3 95/3/3 96/3/3
f 98/3/3 96/3/3 81/3/3
f 99/1/3 97/1/3 96/1/3
f 99/3/3 96/3/3 98/3/3
f 100/1/3 97/1/3 99/1/3
f 101/3/3 85/3/3 84/3/3
f 102/1/3 86/1/3 85/1/3
f 102/3/3 85/3/3 101/3/3
f 103/1/3 86/1/3 102/1/3
f 104/3/3 88/3/3 87/3/3
f 105/1/3 89/1/3 88/1/3
f 105/3/3 88/3/3 104/3/3
f 106/1/3 89/1/3 105/1/3
f 111/2/3 108/2/3 107/2/3
f 112/2/3 108/2/3 111/2/3
f 113/2/3 108/2/3 112/2/3
f 114/2/3 110/2/3 109/2/3
f 115/2/3 110/2/3 114/2/3
f 116/3/3 112/3/3 111/3/3
f 117/3/3 112/3/3 116/3/3
f 118/1/3 117/1/3 116/1/3
f 119/1/3 117/1/3 118/1/3
f 120/3/3 119/3/3 118/3/3
f 121/3/3 119/3/3 120/3/3
f 123/4/3 115/4/3 114/4/3
f 124/4/3 115/4/3 123/4/3
f 125/2/3 122/2/3 121/2/3
f 125/2/3 121/2/3 120/2/3
f 126/2/3 122/2/3 125/2/3
f 127/2/3 124/2/3 123/2/3
f 128/2/3 124/2/3 127/2/3
f 131/3/3 130/3/3 129/3/3
f 132/3/3 130/3/3 131/3/3
f 133/1/3 132/1/3 131/1/3
f 134/1/3 132/1/3 133/1/3
f 135/3/3 134/3/3 133/3/3
f 136/3/3 134/3/3 135/3/3
f 139/3/3 138/3/3 137/3/3
f 140/3/3 138/3/3 139/3/3
f 141/1/3 140/1/3 139/1/3
f 142/1/3 140/1/3 141/1/3
f 143/3/3 142/3/3 141/3/3
f 144/3/3 142/3/3 143/3/3
f 147/3/3 146/3/3 145/3/3
f 148/3/3 146/3/3 147/3/3
f 149/1/3 148/1/3 147/1/3
f 150/1/3 148/1/3 149/1/3
f 151/3/3 150/3/3 149/3/3
f 152/3/3 150/3/3 151/3/3
f 155/3/3 154/3/3 153/3/3
f 156/3/3 154/3/3 155/3/3
f 157/1/3 156/1/3 155/1/3
f 158/1/3 156/1/3 157/1/3
f 159/3/3 158/3/3 157/3/3
f 160/3/3 158/3/3 159/3/3
f 163/3/3 162/3/3 161/3/3
f 164/3/3 162/3/3 163/3/3
f 165/1/3 164/1/3 163/1/3
f 166/1/3 164/1/3 165/1/3
f 167/3/3 166/3/3 165/3/3
f 168/3/3 166/3/3 167/3/3
f 171/3/3 170/3/3 169/3/3
f 172/3/3 170/3/3 171/3/3
f 173/1/3 172/1/3 171/1/3
f 174/1/3 172/1/3 173/1/3
f 175/3/3 174/3/3 173/3/3
f 176/3/3 174/3/3 175/3/3
f 179/3/3 178/3/3 177/3/3
f 180/3/3 178/3/3 179/3/3
f 181/1/3 180/1/3 179/1/3
f 182/1/3 180/1/3 181/1/3
f 183/3/3 182/3/3 181/3/3
f 184/3/3 182/3/3 183/3/3
f 187/4/3 186/4/3 185/4/3
f 188/4/3 186/4/3 187/4/3
f 189/4/3 186/4/3 188/4/3
f 190/4/3 186/4/3 189/4/3
f 191/3/4 192/3/4 200/3/4
f 192/1/4 193/1/4 200/1/4
f 193/2/4 194/2/4 201/2/4
f 200/1/4 193/1/4 201/1/4
f 200/3/4 201/3/4 202/3/4
f 201/2/4 194/2/4 202/2/4
f 194/3/4 195/3/4 203/3/4
f 202/2/4 194/2/4 203/2/4
f 195/1/4 196/1/4 204/1/4
f 203/3/4 195/3/4 204/3/4
f 196/2/4 197/2/4 205/2/4
f 204/1/4 196/1/4 205/1/4
f 197/3/4 198/3/4 206/3/4
f 205/2/4 197/2/4 206/2/4
f 204/4/4 205/4/4 207/4/4
f 200/3/4 202/3/4 207/3/4
f 205/4/4 206/4/4 207/4/4
f 203/4/4 204/4/4 207/4/4
f 202/4/4 203/4/4 207/4/4
f 207/4/4 206/4/4 208/4/4
f 208/4/4 206/4/4 209/4/4
f 206/3/4 198/3/4 210/3/4
f 209/4/4 206/4/4 210/4/4
f 191/3/4 200/3/4 211/3/4
f 200/3/4 207/3/4 211/3/4
f 207/2/4 208/2/4 212/2/4
f 211/3/4 207/3/4 212/3/4
f 208/3/4 209/3/4 213/3/4
f 209/2/4 210/2/4 214/2/4
f 213/3/4 209/3/4 214/3/4
f 191/3/4 211/3/4 215/3/4
f 211/1/4 212/1/4 216/1/4
f 215/3/4 211/3/4 216/3/4
f 212/2/4 208/2/4 217/2/4
f 216/1/4 212/1/4 217/1/4
f 208/3/4 213/3/4 218/3/4
f 217/2/4 208/2/4 218/2/4
f 213/1/4 214/1/4 219/1/4
f 218/3/4 213/3/4 219/3/4
f 214/2/4 210/2/4 220/2/4
f 219/1/4 214/1/4 220/1/4
f 210/3/4 198/3/4 221/3/4
f 220/2/4 210/2/4 221/2/4
f 198/1/4 199/1/4 222/1/4
f 221/3/4 198/3/4 222/3/4
f 222/1/4 199/1/4 223/1/4
f 226/3/5 225/3/5 224/3/5
f 227/3/5 225/3/5 226/3/5
f 230/3/5 229/3/5 228/3/5
f 231/3/5 229/3/5 230/3/5
f 232/3/5 229/3/5 231/3/5
f 233/3/5 229/3/5 232/3/5
f 234/3/5 232/3/5 231/3/5
f 235/3/5 232/3/5 234/3/5
f 238/3/5 237/3/5 236/3/5
f 239/3/5 237/3/5 238/3/5
f 240/3/5 237/3/5 239/3/5
f 241/3/5 237/3/5 240/3/5
f 242/1/6 243/1/6 248/1/6
f 243/3/6 244/3/6 249/3/6
f 248/1/6 243/1/6 249/1/6
f 244/1/6 245/1/6 250/1/6
f 249/3/6 244/3/6 250/3/6
f 245/3/6 246/3/6 251/3/6
f 250/1/6 245/1/6 251/1/6
f 246/1/6 247/1/6 252/1/6
f 251/3/6 246/3/6 252/3/6
f 252/1/6 247/1/6 253/1/6
f 254/3/6 255/3/6 258/3/6
f 255/1/6 256/1/6 259/1/6
f 258/3/6 255/3/6 259/3/6
f 256/3/6 257/3/6 260/3/6
f 259/1/6 256/1/6 260/1/6
f 260/3/6 257/3/6 261/3/6
f 262/3/6 263/3/6 266/3/6
f 263/1/6 264/1/6 267/1/6
f 266/3/6 263/3/6 267/3/6
f 264/3/6 265/3/6 268/3/6
f 267/1/6 264/1/6 268/1/6
f 268/3/6 265/3/6 269/3/6
f 270/3/6 271/3/6 274/3/6
f 271/1/6 272/1/6 275/1/6
f 274/3/6 271/3/6 275/3/6
f 272/3/6 273/3/6 276/3/6
f 275/1/6 272/1/6 276/1/6
f 276/3/6 273/3/6 277/3/6
f 278/3/6 279/3/6 282/3/6
f 279/1/6 280/1/6 283/1/6
f 282/3/6 279/3/6 283/3/6
f 280/3/6 281/3/6 284/3/6
f 283/1/6 280/1/6 284/1/6
f 284/3/6 281/3/6 285/3/6
f 286/3/6 287/3/6 290/3/6
f 287/1/6 288/1/6 291/1/6
f 290/3/6 287/3/6 291/3/6
f 288/3/6 289/3/6 292/3/6
f 291/1/6 288/1/6 292/1/6
f 292/3/6 289/3/6 293/3/6
f 294/3/6 295/3/6 298/3/6
f 295/1/6 296/1/6 299/1/6
f 298/3/6 295/3/6 299/3/6
f 296/3/6 297/3/6 300/3/6
f 299/1/6 296/1/6 300/1/6
f 300/3/6 297/3/6 301/3/6
f 302/3/6 303/3/6 306/3/6
f 303/1/6 304/1/6 307/1/6
f 306/3/6 303/3/6 307/3/6
f 304/3/6 305/3/6 308/3/6
f 307/1/6 304/1/6 308/1/6
f 308/3/6 305/3/6 309/3/6
f 310/3/6 311/3/6 314/3/6
f 311/1/6 312/1/6 315/1/6
f 314/3/6 311/3/6 315/3/6
f 312/3/6 313/3/6 316/3/6
f 315/1/6 312/1/6 316/1/6
f 316/3/6 313/3/6 317/3/6
f 318/1/6 319/1/6 320/1/6
f 320/1/6 319/1/6 321/1/6
f 321/1/6 319/1/6 322/1/6
f 322/1/6 319/1/6 323/1/6
f 324/1/6 325/1/6 326/1/6
f 326/1/6 325/1/6 327/1/6
