# MagicaVoxel @ Ephtracy

# group
g generator_E

# material
mtllib generator_E.mtl
usemtl palette

# normals
vn -1 0 0
vn 1 0 0
vn 0 0 1
vn 0 0 -1
vn 0 -1 0
vn 0 1 0

# texcoords
vt 0.876953 0.5
vt 0.880859 0.5
vt 0.884766 0.5
vt 0.888672 0.5
vt 0.892578 0.5

# verts
v -7 4 5
v -7 4 -9
v -7 7 5
v -7 7 3
v -7 7 -0
v -7 7 -4
v -7 7 -7
v -7 7 -9
v -7 8 3
v -7 8 -0
v -7 8 -4
v -7 8 -7
v -7 10 5
v -7 10 3
v -7 10 -0
v -7 10 -4
v -7 10 -7
v -7 10 -9
v -7 11 3
v -7 11 -0
v -7 11 -4
v -7 11 -7
v -7 13 5
v -7 13 3
v -7 13 -0
v -7 13 -4
v -7 13 -7
v -7 13 -9
v -7 14 3
v -7 14 -0
v -7 14 -4
v -7 14 -7
v -7 16 5
v -7 16 3
v -7 16 -0
v -7 16 -4
v -7 16 -7
v -7 16 -9
v -7 17 3
v -7 17 -0
v -7 17 -4
v -7 17 -7
v -7 20 5
v -7 20 -9
v 7 4 5
v 7 4 -9
v 7 7 5
v 7 7 3
v 7 7 -0
v 7 7 -4
v 7 7 -7
v 7 7 -9
v 7 8 3
v 7 8 -0
v 7 8 -4
v 7 8 -7
v 7 10 5
v 7 10 3
v 7 10 -0
v 7 10 -4
v 7 10 -7
v 7 10 -9
v 7 11 3
v 7 11 -0
v 7 11 -4
v 7 11 -7
v 7 13 5
v 7 13 3
v 7 13 -0
v 7 13 -4
v 7 13 -7
v 7 13 -9
v 7 14 3
v 7 14 -0
v 7 14 -4
v 7 14 -7
v 7 16 5
v 7 16 3
v 7 16 -0
v 7 16 -4
v 7 16 -7
v 7 16 -9
v 7 17 3
v 7 17 -0
v 7 17 -4
v 7 17 -7
v 7 20 5
v 7 20 -9
v -7 4 5
v -7 7 5
v -7 10 5
v -7 13 5
v -7 16 5
v -7 20 5
v -5 7 5
v -5 8 5
v -5 10 5
v -5 11 5
v -5 13 5
v -5 14 5
v -5 16 5
v -5 17 5
v -2 7 5
v -2 8 5
v -2 10 5
v -2 11 5
v -2 13 5
v -2 14 5
v -2 16 5
v -2 17 5
v 2 7 5
v 2 8 5
v 2 10 5
v 2 11 5
v 2 13 5
v 2 14 5
v 2 16 5
v 2 17 5
v 5 7 5
v 5 8 5
v 5 10 5
v 5 11 5
v 5 13 5
v 5 14 5
v 5 16 5
v 5 17 5
v 7 4 5
v 7 7 5
v 7 10 5
v 7 13 5
v 7 16 5
v 7 20 5
v -7 4 -9
v -7 7 -9
v -7 10 -9
v -7 13 -9
v -7 16 -9
v -7 20 -9
v -5 7 -9
v -5 8 -9
v -5 10 -9
v -5 11 -9
v -5 13 -9
v -5 14 -9
v -5 16 -9
v -5 17 -9
v -2 7 -9
v -2 8 -9
v -2 10 -9
v -2 11 -9
v -2 13 -9
v -2 14 -9
v -2 16 -9
v -2 17 -9
v 2 7 -9
v 2 8 -9
v 2 10 -9
v 2 11 -9
v 2 13 -9
v 2 14 -9
v 2 16 -9
v 2 17 -9
v 5 7 -9
v 5 8 -9
v 5 10 -9
v 5 11 -9
v 5 13 -9
v 5 14 -9
v 5 16 -9
v 5 17 -9
v 7 4 -9
v 7 7 -9
v 7 10 -9
v 7 13 -9
v 7 16 -9
v 7 20 -9
v -7 4 5
v 7 4 5
v -7 4 -9
v 7 4 -9
v -7 20 5
v 7 20 5
v -7 20 -9
v 7 20 -9

# faces
f 3/5/1 2/5/1 1/5/1
f 4/5/1 2/5/1 3/5/1
f 5/5/1 2/5/1 4/5/1
f 6/5/1 2/5/1 5/5/1
f 7/5/1 2/5/1 6/5/1
f 8/5/1 2/5/1 7/5/1
f 9/4/1 4/4/1 3/4/1
f 9/5/1 5/5/1 4/5/1
f 10/4/1 6/4/1 5/4/1
f 10/5/1 5/5/1 9/5/1
f 11/5/1 7/5/1 6/5/1
f 11/4/1 6/4/1 10/4/1
f 12/4/1 8/4/1 7/4/1
f 12/5/1 7/5/1 11/5/1
f 13/4/1 11/4/1 10/4/1
f 13/4/1 9/4/1 3/4/1
f 13/4/1 12/4/1 11/4/1
f 13/4/1 10/4/1 9/4/1
f 14/4/1 12/4/1 13/4/1
f 15/4/1 12/4/1 14/4/1
f 16/4/1 12/4/1 15/4/1
f 17/4/1 8/4/1 12/4/1
f 17/4/1 12/4/1 16/4/1
f 18/4/1 8/4/1 17/4/1
f 19/3/1 14/3/1 13/3/1
f 19/4/1 15/4/1 14/4/1
f 20/3/1 16/3/1 15/3/1
f 20/4/1 15/4/1 19/4/1
f 21/4/1 17/4/1 16/4/1
f 21/3/1 16/3/1 20/3/1
f 22/3/1 18/3/1 17/3/1
f 22/4/1 17/4/1 21/4/1
f 23/3/1 19/3/1 13/3/1
f 23/3/1 21/3/1 20/3/1
f 23/3/1 22/3/1 21/3/1
f 23/3/1 20/3/1 19/3/1
f 24/3/1 22/3/1 23/3/1
f 25/3/1 22/3/1 24/3/1
f 26/3/1 22/3/1 25/3/1
f 27/3/1 18/3/1 22/3/1
f 27/3/1 22/3/1 26/3/1
f 28/3/1 18/3/1 27/3/1
f 29/2/1 24/2/1 23/2/1
f 29/3/1 25/3/1 24/3/1
f 30/2/1 26/2/1 25/2/1
f 30/3/1 25/3/1 29/3/1
f 31/3/1 27/3/1 26/3/1
f 31/2/1 26/2/1 30/2/1
f 32/2/1 28/2/1 27/2/1
f 32/3/1 27/3/1 31/3/1
f 33/2/1 29/2/1 23/2/1
f 33/2/1 31/2/1 30/2/1
f 33/2/1 32/2/1 31/2/1
f 33/2/1 30/2/1 29/2/1
f 34/2/1 32/2/1 33/2/1
f 35/2/1 32/2/1 34/2/1
f 36/2/1 32/2/1 35/2/1
f 37/2/1 28/2/1 32/2/1
f 37/2/1 32/2/1 36/2/1
f 38/2/1 28/2/1 37/2/1
f 39/1/1 34/1/1 33/1/1
f 39/2/1 35/2/1 34/2/1
f 40/1/1 36/1/1 35/1/1
f 40/2/1 35/2/1 39/2/1
f 41/2/1 37/2/1 36/2/1
f 41/1/1 36/1/1 40/1/1
f 42/1/1 38/1/1 37/1/1
f 42/2/1 37/2/1 41/2/1
f 43/1/1 39/1/1 33/1/1
f 43/1/1 41/1/1 40/1/1
f 43/1/1 42/1/1 41/1/1
f 43/1/1 40/1/1 39/1/1
f 44/1/1 38/1/1 42/1/1
f 44/1/1 42/1/1 43/1/1
f 45/5/2 46/5/2 47/5/2
f 47/5/2 46/5/2 48/5/2
f 48/5/2 46/5/2 49/5/2
f 49/5/2 46/5/2 50/5/2
f 50/5/2 46/5/2 51/5/2
f 51/5/2 46/5/2 52/5/2
f 47/4/2 48/4/2 53/4/2
f 48/5/2 49/5/2 53/5/2
f 49/4/2 50/4/2 54/4/2
f 53/5/2 49/5/2 54/5/2
f 50/5/2 51/5/2 55/5/2
f 54/4/2 50/4/2 55/4/2
f 51/4/2 52/4/2 56/4/2
f 55/5/2 51/5/2 56/5/2
f 54/4/2 55/4/2 57/4/2
f 47/4/2 53/4/2 57/4/2
f 55/4/2 56/4/2 57/4/2
f 53/4/2 54/4/2 57/4/2
f 57/4/2 56/4/2 58/4/2
f 58/4/2 56/4/2 59/4/2
f 59/4/2 56/4/2 60/4/2
f 56/4/2 52/4/2 61/4/2
f 60/4/2 56/4/2 61/4/2
f 61/4/2 52/4/2 62/4/2
f 57/3/2 58/3/2 63/3/2
f 58/4/2 59/4/2 63/4/2
f 59/3/2 60/3/2 64/3/2
f 63/4/2 59/4/2 64/4/2
f 60/4/2 61/4/2 65/4/2
f 64/3/2 60/3/2 65/3/2
f 61/3/2 62/3/2 66/3/2
f 65/4/2 61/4/2 66/4/2
f 57/3/2 63/3/2 67/3/2
f 64/3/2 65/3/2 67/3/2
f 65/3/2 66/3/2 67/3/2
f 63/3/2 64/3/2 67/3/2
f 67/3/2 66/3/2 68/3/2
f 68/3/2 66/3/2 69/3/2
f 69/3/2 66/3/2 70/3/2
f 66/3/2 62/3/2 71/3/2
f 70/3/2 66/3/2 71/3/2
f 71/3/2 62/3/2 72/3/2
f 67/2/2 68/2/2 73/2/2
f 68/3/2 69/3/2 73/3/2
f 69/2/2 70/2/2 74/2/2
f 73/3/2 69/3/2 74/3/2
f 70/3/2 71/3/2 75/3/2
f 74/2/2 70/2/2 75/2/2
f 71/2/2 72/2/2 76/2/2
f 75/3/2 71/3/2 76/3/2
f 67/2/2 73/2/2 77/2/2
f 74/2/2 75/2/2 77/2/2
f 75/2/2 76/2/2 77/2/2
f 73/2/2 74/2/2 77/2/2
f 77/2/2 76/2/2 78/2/2
f 78/2/2 76/2/2 79/2/2
f 79/2/2 76/2/2 80/2/2
f 76/2/2 72/2/2 81/2/2
f 80/2/2 76/2/2 81/2/2
f 81/2/2 72/2/2 82/2/2
f 77/1/2 78/1/2 83/1/2
f 78/2/2 79/2/2 83/2/2
f 79/1/2 80/1/2 84/1/2
f 83/2/2 79/2/2 84/2/2
f 80/2/2 81/2/2 85/2/2
f 84/1/2 80/1/2 85/1/2
f 81/1/2 82/1/2 86/1/2
f 85/2/2 81/2/2 86/2/2
f 77/1/2 83/1/2 87/1/2
f 84/1/2 85/1/2 87/1/2
f 85/1/2 86/1/2 87/1/2
f 83/1/2 84/1/2 87/1/2
f 86/1/2 82/1/2 88/1/2
f 87/1/2 86/1/2 88/1/2
f 95/5/3 90/5/3 89/5/3
f 95/4/3 91/4/3 90/4/3
f 96/4/3 91/4/3 95/4/3
f 97/3/3 92/3/3 91/3/3
f 97/4/3 91/4/3 96/4/3
f 98/3/3 92/3/3 97/3/3
f 99/2/3 93/2/3 92/2/3
f 99/3/3 92/3/3 98/3/3
f 100/2/3 93/2/3 99/2/3
f 101/1/3 94/1/3 93/1/3
f 101/2/3 93/2/3 100/2/3
f 102/1/3 94/1/3 101/1/3
f 103/5/3 96/5/3 95/5/3
f 103/5/3 95/5/3 89/5/3
f 104/4/3 98/4/3 97/4/3
f 104/5/3 96/5/3 103/5/3
f 104/4/3 97/4/3 96/4/3
f 105/4/3 98/4/3 104/4/3
f 106/3/3 100/3/3 99/3/3
f 106/4/3 98/4/3 105/4/3
f 106/3/3 99/3/3 98/3/3
f 107/3/3 100/3/3 106/3/3
f 108/2/3 102/2/3 101/2/3
f 108/3/3 100/3/3 107/3/3
f 108/2/3 101/2/3 100/2/3
f 109/2/3 102/2/3 108/2/3
f 110/1/3 94/1/3 102/1/3
f 110/2/3 102/2/3 109/2/3
f 111/4/3 105/4/3 104/4/3
f 111/5/3 103/5/3 89/5/3
f 111/4/3 104/4/3 103/4/3
f 112/4/3 105/4/3 111/4/3
f 113/3/3 107/3/3 106/3/3
f 113/4/3 105/4/3 112/4/3
f 113/3/3 106/3/3 105/3/3
f 114/3/3 107/3/3 113/3/3
f 115/2/3 109/2/3 108/2/3
f 115/3/3 107/3/3 114/3/3
f 115/2/3 108/2/3 107/2/3
f 116/2/3 109/2/3 115/2/3
f 117/1/3 110/1/3 109/1/3
f 117/2/3 109/2/3 116/2/3
f 118/1/3 94/1/3 110/1/3
f 118/1/3 110/1/3 117/1/3
f 119/5/3 112/5/3 111/5/3
f 119/5/3 111/5/3 89/5/3
f 120/4/3 114/4/3 113/4/3
f 120/5/3 112/5/3 119/5/3
f 120/4/3 113/4/3 112/4/3
f 121/4/3 114/4/3 120/4/3
f 122/3/3 116/3/3 115/3/3
f 122/4/3 114/4/3 121/4/3
f 122/3/3 115/3/3 114/3/3
f 123/3/3 116/3/3 122/3/3
f 124/2/3 117/2/3 116/2/3
f 124/3/3 116/3/3 123/3/3
f 124/2/3 118/2/3 117/2/3
f 125/2/3 118/2/3 124/2/3
f 126/1/3 94/1/3 118/1/3
f 126/2/3 118/2/3 125/2/3
f 127/5/3 119/5/3 89/5/3
f 128/4/3 121/4/3 120/4/3
f 128/5/3 119/5/3 127/5/3
f 128/4/3 120/4/3 119/4/3
f 129/3/3 123/3/3 122/3/3
f 129/4/3 121/4/3 128/4/3
f 129/3/3 122/3/3 121/3/3
f 130/2/3 125/2/3 124/2/3
f 130/3/3 123/3/3 129/3/3
f 130/2/3 124/2/3 123/2/3
f 131/1/3 126/1/3 125/1/3
f 131/2/3 125/2/3 130/2/3
f 132/1/3 94/1/3 126/1/3
f 132/1/3 126/1/3 131/1/3
f 133/5/4 134/5/4 139/5/4
f 134/4/4 135/4/4 139/4/4
f 139/4/4 135/4/4 140/4/4
f 135/3/4 136/3/4 141/3/4
f 140/4/4 135/4/4 141/4/4
f 141/3/4 136/3/4 142/3/4
f 136/2/4 137/2/4 143/2/4
f 142/3/4 136/3/4 143/3/4
f 143/2/4 137/2/4 144/2/4
f 137/1/4 138/1/4 145/1/4
f 144/2/4 137/2/4 145/2/4
f 145/1/4 138/1/4 146/1/4
f 139/5/4 140/5/4 147/5/4
f 133/5/4 139/5/4 147/5/4
f 141/4/4 142/4/4 148/4/4
f 147/5/4 140/5/4 148/5/4
f 140/4/4 141/4/4 148/4/4
f 148/4/4 142/4/4 149/4/4
f 143/3/4 144/3/4 150/3/4
f 149/4/4 142/4/4 150/4/4
f 142/3/4 143/3/4 150/3/4
f 150/3/4 144/3/4 151/3/4
f 145/2/4 146/2/4 152/2/4
f 151/3/4 144/3/4 152/3/4
f 144/2/4 145/2/4 152/2/4
f 152/2/4 146/2/4 153/2/4
f 146/1/4 138/1/4 154/1/4
f 153/2/4 146/2/4 154/2/4
f 148/4/4 149/4/4 155/4/4
f 133/5/4 147/5/4 155/5/4
f 147/4/4 148/4/4 155/4/4
f 155/4/4 149/4/4 156/4/4
f 150/3/4 151/3/4 157/3/4
f 156/4/4 149/4/4 157/4/4
f 149/3/4 150/3/4 157/3/4
f 157/3/4 151/3/4 158/3/4
f 152/2/4 153/2/4 159/2/4
f 158/3/4 151/3/4 159/3/4
f 151/2/4 152/2/4 159/2/4
f 159/2/4 153/2/4 160/2/4
f 153/1/4 154/1/4 161/1/4
f 160/2/4 153/2/4 161/2/4
f 154/1/4 138/1/4 162/1/4
f 161/1/4 154/1/4 162/1/4
f 155/5/4 156/5/4 163/5/4
f 133/5/4 155/5/4 163/5/4
f 157/4/4 158/4/4 164/4/4
f 163/5/4 156/5/4 164/5/4
f 156/4/4 157/4/4 164/4/4
f 164/4/4 158/4/4 165/4/4
f 159/3/4 160/3/4 166/3/4
f 165/4/4 158/4/4 166/4/4
f 158/3/4 159/3/4 166/3/4
f 166/3/4 160/3/4 167/3/4
f 160/2/4 161/2/4 168/2/4
f 167/3/4 160/3/4 168/3/4
f 161/2/4 162/2/4 168/2/4
f 168/2/4 162/2/4 169/2/4
f 162/1/4 138/1/4 170/1/4
f 169/2/4 162/2/4 170/2/4
f 133/5/4 163/5/4 171/5/4
f 164/4/4 165/4/4 172/4/4
f 171/5/4 163/5/4 172/5/4
f 163/4/4 164/4/4 172/4/4
f 166/3/4 167/3/4 173/3/4
f 172/4/4 165/4/4 173/4/4
f 165/3/4 166/3/4 173/3/4
f 168/2/4 169/2/4 174/2/4
f 173/3/4 167/3/4 174/3/4
f 167/2/4 168/2/4 174/2/4
f 169/1/4 170/1/4 175/1/4
f 174/2/4 169/2/4 175/2/4
f 170/1/4 138/1/4 176/1/4
f 175/1/4 170/1/4 176/1/4
f 179/5/5 178/5/5 177/5/5
f 180/5/5 178/5/5 179/5/5
f 181/1/6 182/1/6 183/1/6
f 183/1/6 182/1/6 184/1/6
