# MagicaVoxel @ Ephtracy

# group
g generator

# material
mtllib generator.mtl
usemtl palette

# normals
vn -1 0 0
vn 1 0 0
vn 0 0 1
vn 0 0 -1
vn 0 -1 0
vn 0 1 0

# texcoords
vt 0.224609 0.5
vt 0.228516 0.5
vt 0.232422 0.5

# verts
v -8 0 6
v -8 0 -10
v -8 2 6
v -8 2 5
v -8 2 -9
v -8 2 -10
v -8 3 6
v -8 3 5
v -8 3 -9
v -8 3 -10
v -8 4 6
v -8 4 -10
v -8 20 6
v -8 20 -10
v -8 21 6
v -8 21 5
v -8 21 -9
v -8 21 -10
v -8 22 6
v -8 22 5
v -8 22 -9
v -8 22 -10
v -8 24 6
v -8 24 -10
v -4 0 10
v -4 0 6
v -4 1 10
v -4 1 9
v -4 2 9
v -4 2 8
v -4 2 6
v -4 2 5
v -4 3 8
v -4 3 7
v -4 3 6
v -4 3 5
v -4 4 7
v -4 4 6
v -2 24 -0
v -2 24 -4
v -2 25 -0
v -2 25 -4
v 2 24 -0
v 2 24 -4
v 2 25 -0
v 2 25 -4
v 4 0 10
v 4 0 6
v 4 1 10
v 4 1 9
v 4 2 9
v 4 2 8
v 4 2 6
v 4 2 5
v 4 3 8
v 4 3 7
v 4 3 6
v 4 3 5
v 4 4 7
v 4 4 6
v 8 0 6
v 8 0 -10
v 8 2 6
v 8 2 5
v 8 2 -9
v 8 2 -10
v 8 3 6
v 8 3 5
v 8 3 -9
v 8 3 -10
v 8 4 6
v 8 4 -10
v 8 20 6
v 8 20 -10
v 8 21 6
v 8 21 5
v 8 21 -9
v 8 21 -10
v 8 22 6
v 8 22 5
v 8 22 -9
v 8 22 -10
v 8 24 6
v 8 24 -10
v -4 0 10
v -4 1 10
v -3 0 10
v -3 1 10
v 3 0 10
v 3 1 10
v 4 0 10
v 4 1 10
v -4 1 9
v -4 2 9
v -3 1 9
v -3 2 9
v 3 1 9
v 3 2 9
v 4 1 9
v 4 2 9
v -4 2 8
v -4 3 8
v -3 2 8
v -3 3 8
v 3 2 8
v 3 3 8
v 4 2 8
v 4 3 8
v -4 3 7
v -4 4 7
v -3 3 7
v -3 4 7
v 3 3 7
v 3 4 7
v 4 3 7
v 4 4 7
v -8 0 6
v -8 2 6
v -8 3 6
v -8 4 6
v -8 20 6
v -8 21 6
v -8 22 6
v -8 24 6
v -4 0 6
v -4 2 6
v -4 3 6
v -4 4 6
v 4 0 6
v 4 2 6
v 4 3 6
v 4 4 6
v 8 0 6
v 8 2 6
v 8 3 6
v 8 4 6
v 8 20 6
v 8 21 6
v 8 22 6
v 8 24 6
v -8 2 5
v -8 3 5
v -8 21 5
v -8 22 5
v -4 2 5
v -4 3 5
v 4 2 5
v 4 3 5
v 8 2 5
v 8 3 5
v 8 21 5
v 8 22 5
v -2 24 -0
v -2 25 -0
v 2 24 -0
v 2 25 -0
v -2 24 -4
v -2 25 -4
v 2 24 -4
v 2 25 -4
v -8 2 -9
v -8 3 -9
v -8 21 -9
v -8 22 -9
v 8 2 -9
v 8 3 -9
v 8 21 -9
v 8 22 -9
v -8 0 -10
v -8 2 -10
v -8 3 -10
v -8 4 -10
v -8 20 -10
v -8 21 -10
v -8 22 -10
v -8 24 -10
v 8 0 -10
v 8 2 -10
v 8 3 -10
v 8 4 -10
v 8 20 -10
v 8 21 -10
v 8 22 -10
v 8 24 -10
v -4 0 10
v -3 0 10
v 3 0 10
v 4 0 10
v -8 0 6
v -4 0 6
v 4 0 6
v 8 0 6
v -3 0 5
v 3 0 5
v -8 0 -10
v 8 0 -10
v -8 3 6
v -4 3 6
v 4 3 6
v 8 3 6
v -8 3 5
v -4 3 5
v 4 3 5
v 8 3 5
v -8 3 -9
v 8 3 -9
v -8 3 -10
v 8 3 -10
v -8 20 6
v 8 20 6
v -8 20 -10
v 8 20 -10
v -8 22 6
v 8 22 6
v -8 22 5
v 8 22 5
v -8 22 -9
v 8 22 -9
v -8 22 -10
v 8 22 -10
v -4 1 10
v -3 1 10
v 3 1 10
v 4 1 10
v -4 1 9
v -3 1 9
v 3 1 9
v 4 1 9
v -4 2 9
v -3 2 9
v 3 2 9
v 4 2 9
v -4 2 8
v -3 2 8
v 3 2 8
v 4 2 8
v -8 2 6
v -4 2 6
v 4 2 6
v 8 2 6
v -8 2 5
v -4 2 5
v 4 2 5
v 8 2 5
v -8 2 -9
v 8 2 -9
v -8 2 -10
v 8 2 -10
v -4 3 8
v -3 3 8
v 3 3 8
v 4 3 8
v -4 3 7
v -3 3 7
v 3 3 7
v 4 3 7
v -4 4 7
v -3 4 7
v 3 4 7
v 4 4 7
v -8 4 6
v -4 4 6
v 4 4 6
v 8 4 6
v -3 4 5
v 3 4 5
v -8 4 -10
v 8 4 -10
v -8 21 6
v 8 21 6
v -8 21 5
v 8 21 5
v -8 21 -9
v 8 21 -9
v -8 21 -10
v 8 21 -10
v -8 24 6
v 8 24 6
v -2 24 -0
v 2 24 -0
v -2 24 -4
v 2 24 -4
v -8 24 -10
v 8 24 -10
v -2 25 -0
v 2 25 -0
v -2 25 -4
v 2 25 -4

# faces
f 3/2/1 2/2/1 1/2/1
f 4/2/1 2/2/1 3/2/1
f 5/2/1 2/2/1 4/2/1
f 6/2/1 2/2/1 5/2/1
f 8/3/1 5/3/1 4/3/1
f 9/3/1 5/3/1 8/3/1
f 11/2/1 8/2/1 7/2/1
f 11/2/1 10/2/1 9/2/1
f 11/2/1 9/2/1 8/2/1
f 12/2/1 10/2/1 11/2/1
f 15/2/1 14/2/1 13/2/1
f 16/2/1 14/2/1 15/2/1
f 17/2/1 14/2/1 16/2/1
f 18/2/1 14/2/1 17/2/1
f 20/3/1 17/3/1 16/3/1
f 21/3/1 17/3/1 20/3/1
f 23/2/1 20/2/1 19/2/1
f 23/2/1 22/2/1 21/2/1
f 23/2/1 21/2/1 20/2/1
f 24/2/1 22/2/1 23/2/1
f 27/2/1 26/2/1 25/2/1
f 28/2/1 26/2/1 27/2/1
f 29/2/1 26/2/1 28/2/1
f 30/2/1 26/2/1 29/2/1
f 31/2/1 26/2/1 30/2/1
f 33/2/1 31/2/1 30/2/1
f 34/2/1 31/2/1 33/2/1
f 35/3/1 32/3/1 31/3/1
f 35/2/1 31/2/1 34/2/1
f 36/3/1 32/3/1 35/3/1
f 37/2/1 35/2/1 34/2/1
f 38/2/1 35/2/1 37/2/1
f 41/1/1 40/1/1 39/1/1
f 42/1/1 40/1/1 41/1/1
f 43/1/2 44/1/2 45/1/2
f 45/1/2 44/1/2 46/1/2
f 47/2/2 48/2/2 49/2/2
f 49/2/2 48/2/2 50/2/2
f 50/2/2 48/2/2 51/2/2
f 51/2/2 48/2/2 52/2/2
f 52/2/2 48/2/2 53/2/2
f 52/2/2 53/2/2 55/2/2
f 55/2/2 53/2/2 56/2/2
f 53/3/2 54/3/2 57/3/2
f 56/2/2 53/2/2 57/2/2
f 57/3/2 54/3/2 58/3/2
f 56/2/2 57/2/2 59/2/2
f 59/2/2 57/2/2 60/2/2
f 61/2/2 62/2/2 63/2/2
f 63/2/2 62/2/2 64/2/2
f 64/2/2 62/2/2 65/2/2
f 65/2/2 62/2/2 66/2/2
f 64/3/2 65/3/2 68/3/2
f 68/3/2 65/3/2 69/3/2
f 67/2/2 68/2/2 71/2/2
f 69/2/2 70/2/2 71/2/2
f 68/2/2 69/2/2 71/2/2
f 71/2/2 70/2/2 72/2/2
f 73/2/2 74/2/2 75/2/2
f 75/2/2 74/2/2 76/2/2
f 76/2/2 74/2/2 77/2/2
f 77/2/2 74/2/2 78/2/2
f 76/3/2 77/3/2 80/3/2
f 80/3/2 77/3/2 81/3/2
f 79/2/2 80/2/2 83/2/2
f 81/2/2 82/2/2 83/2/2
f 80/2/2 81/2/2 83/2/2
f 83/2/2 82/2/2 84/2/2
f 87/2/3 86/2/3 85/2/3
f 88/2/3 86/2/3 87/2/3
f 89/1/3 88/1/3 87/1/3
f 90/1/3 88/1/3 89/1/3
f 91/2/3 90/2/3 89/2/3
f 92/2/3 90/2/3 91/2/3
f 95/2/3 94/2/3 93/2/3
f 96/2/3 94/2/3 95/2/3
f 97/1/3 96/1/3 95/1/3
f 98/1/3 96/1/3 97/1/3
f 99/2/3 98/2/3 97/2/3
f 100/2/3 98/2/3 99/2/3
f 103/2/3 102/2/3 101/2/3
f 104/2/3 102/2/3 103/2/3
f 105/1/3 104/1/3 103/1/3
f 106/1/3 104/1/3 105/1/3
f 107/2/3 106/2/3 105/2/3
f 108/2/3 106/2/3 107/2/3
f 111/2/3 110/2/3 109/2/3
f 112/2/3 110/2/3 111/2/3
f 113/1/3 112/1/3 111/1/3
f 114/1/3 112/1/3 113/1/3
f 115/2/3 114/2/3 113/2/3
f 116/2/3 114/2/3 115/2/3
f 125/2/3 118/2/3 117/2/3
f 126/2/3 118/2/3 125/2/3
f 127/2/3 120/2/3 119/2/3
f 128/2/3 120/2/3 127/2/3
f 133/2/3 130/2/3 129/2/3
f 134/2/3 130/2/3 133/2/3
f 135/2/3 132/2/3 131/2/3
f 136/2/3 132/2/3 135/2/3
f 137/2/3 122/2/3 121/2/3
f 138/2/3 122/2/3 137/2/3
f 139/2/3 124/2/3 123/2/3
f 140/2/3 124/2/3 139/2/3
f 145/3/3 142/3/3 141/3/3
f 146/3/3 142/3/3 145/3/3
f 149/3/3 148/3/3 147/3/3
f 150/3/3 148/3/3 149/3/3
f 151/3/3 144/3/3 143/3/3
f 152/3/3 144/3/3 151/3/3
f 155/1/3 154/1/3 153/1/3
f 156/1/3 154/1/3 155/1/3
f 157/1/4 158/1/4 159/1/4
f 159/1/4 158/1/4 160/1/4
f 161/3/4 162/3/4 165/3/4
f 165/3/4 162/3/4 166/3/4
f 163/3/4 164/3/4 167/3/4
f 167/3/4 164/3/4 168/3/4
f 169/2/4 170/2/4 177/2/4
f 177/2/4 170/2/4 178/2/4
f 171/2/4 172/2/4 179/2/4
f 179/2/4 172/2/4 180/2/4
f 173/2/4 174/2/4 181/2/4
f 181/2/4 174/2/4 182/2/4
f 175/2/4 176/2/4 183/2/4
f 183/2/4 176/2/4 184/2/4
f 190/2/5 186/2/5 185/2/5
f 191/2/5 188/2/5 187/2/5
f 193/2/5 190/2/5 189/2/5
f 193/1/5 187/1/5 186/1/5
f 193/2/5 186/2/5 190/2/5
f 194/2/5 192/2/5 191/2/5
f 194/1/5 187/1/5 193/1/5
f 194/2/5 191/2/5 187/2/5
f 195/2/5 193/2/5 189/2/5
f 195/2/5 194/2/5 193/2/5
f 196/2/5 192/2/5 194/2/5
f 196/2/5 194/2/5 195/2/5
f 201/2/5 198/2/5 197/2/5
f 202/2/5 198/2/5 201/2/5
f 203/2/5 200/2/5 199/2/5
f 204/2/5 200/2/5 203/2/5
f 207/2/5 206/2/5 205/2/5
f 208/2/5 206/2/5 207/2/5
f 211/2/5 210/2/5 209/2/5
f 212/2/5 210/2/5 211/2/5
f 215/2/5 214/2/5 213/2/5
f 216/2/5 214/2/5 215/2/5
f 219/2/5 218/2/5 217/2/5
f 220/2/5 218/2/5 219/2/5
f 221/2/6 222/2/6 225/2/6
f 222/1/6 223/1/6 226/1/6
f 225/2/6 222/2/6 226/2/6
f 223/2/6 224/2/6 227/2/6
f 226/1/6 223/1/6 227/1/6
f 227/2/6 224/2/6 228/2/6
f 229/2/6 230/2/6 233/2/6
f 230/1/6 231/1/6 234/1/6
f 233/2/6 230/2/6 234/2/6
f 231/2/6 232/2/6 235/2/6
f 234/1/6 231/1/6 235/1/6
f 235/2/6 232/2/6 236/2/6
f 237/2/6 238/2/6 241/2/6
f 241/2/6 238/2/6 242/2/6
f 239/2/6 240/2/6 243/2/6
f 243/2/6 240/2/6 244/2/6
f 245/2/6 246/2/6 247/2/6
f 247/2/6 246/2/6 248/2/6
f 249/2/6 250/2/6 253/2/6
f 250/1/6 251/1/6 254/1/6
f 253/2/6 250/2/6 254/2/6
f 251/2/6 252/2/6 255/2/6
f 254/1/6 251/1/6 255/1/6
f 255/2/6 252/2/6 256/2/6
f 257/2/6 258/2/6 262/2/6
f 259/2/6 260/2/6 263/2/6
f 261/2/6 262/2/6 265/2/6
f 258/1/6 259/1/6 265/1/6
f 262/2/6 258/2/6 265/2/6
f 263/2/6 264/2/6 266/2/6
f 265/1/6 259/1/6 266/1/6
f 259/2/6 263/2/6 266/2/6
f 261/2/6 265/2/6 267/2/6
f 265/2/6 266/2/6 267/2/6
f 266/2/6 264/2/6 268/2/6
f 267/2/6 266/2/6 268/2/6
f 269/2/6 270/2/6 271/2/6
f 271/2/6 270/2/6 272/2/6
f 273/2/6 274/2/6 275/2/6
f 275/2/6 274/2/6 276/2/6
f 277/2/6 278/2/6 279/2/6
f 279/2/6 278/2/6 280/2/6
f 277/2/6 279/2/6 281/2/6
f 280/2/6 278/2/6 282/2/6
f 277/2/6 281/2/6 283/2/6
f 281/2/6 282/2/6 283/2/6
f 282/2/6 278/2/6 284/2/6
f 283/2/6 282/2/6 284/2/6
f 285/1/6 286/1/6 287/1/6
f 287/1/6 286/1/6 288/1/6
