# MagicaVoxel @ Ephtracy

# group
g generator

# material
mtllib generator.mtl
usemtl palette

# normals
vn -1 0 0
vn 1 0 0
vn 0 0 1
vn 0 0 -1
vn 0 -1 0
vn 0 1 0

# texcoords
vt 0.224609 0.5
vt 0.228516 0.5
vt 0.232422 0.5

# verts
v -8 0 6
v -8 0 -10
v -8 2 6
v -8 2 5
v -8 2 -9
v -8 2 -10
v -8 3 6
v -8 3 5
v -8 3 -9
v -8 3 -10
v -8 4 6
v -8 4 -10
v -8 20 6
v -8 20 -10
v -8 21 6
v -8 21 5
v -8 21 -9
v -8 21 -10
v -8 22 6
v -8 22 5
v -8 22 -9
v -8 22 -10
v -8 23 6
v -8 23 -10
v -7 23 5
v -7 23 -9
v -7 24 5
v -7 24 -9
v -4 0 10
v -4 0 6
v -4 1 10
v -4 1 9
v -4 2 9
v -4 2 8
v -4 2 6
v -4 2 5
v -4 3 8
v -4 3 7
v -4 3 6
v -4 3 5
v -4 4 7
v -4 4 6
v -2 24 -0
v -2 24 -4
v -2 25 -0
v -2 25 -4
v 2 24 -0
v 2 24 -4
v 2 25 -0
v 2 25 -4
v 4 0 10
v 4 0 6
v 4 1 10
v 4 1 9
v 4 2 9
v 4 2 8
v 4 2 6
v 4 2 5
v 4 3 8
v 4 3 7
v 4 3 6
v 4 3 5
v 4 4 7
v 4 4 6
v 7 23 5
v 7 23 -9
v 7 24 5
v 7 24 -9
v 8 0 6
v 8 0 -10
v 8 2 6
v 8 2 5
v 8 2 -9
v 8 2 -10
v 8 3 6
v 8 3 5
v 8 3 -9
v 8 3 -10
v 8 4 6
v 8 4 -10
v 8 20 6
v 8 20 -10
v 8 21 6
v 8 21 5
v 8 21 -9
v 8 21 -10
v 8 22 6
v 8 22 5
v 8 22 -9
v 8 22 -10
v 8 23 6
v 8 23 -10
v -4 0 10
v -4 1 10
v -3 0 10
v -3 1 10
v 3 0 10
v 3 1 10
v 4 0 10
v 4 1 10
v -4 1 9
v -4 2 9
v -3 1 9
v -3 2 9
v 3 1 9
v 3 2 9
v 4 1 9
v 4 2 9
v -4 2 8
v -4 3 8
v -3 2 8
v -3 3 8
v 3 2 8
v 3 3 8
v 4 2 8
v 4 3 8
v -4 3 7
v -4 4 7
v -3 3 7
v -3 4 7
v 3 3 7
v 3 4 7
v 4 3 7
v 4 4 7
v -8 0 6
v -8 2 6
v -8 3 6
v -8 4 6
v -8 20 6
v -8 21 6
v -8 22 6
v -8 23 6
v -4 0 6
v -4 2 6
v -4 3 6
v -4 4 6
v 4 0 6
v 4 2 6
v 4 3 6
v 4 4 6
v 8 0 6
v 8 2 6
v 8 3 6
v 8 4 6
v 8 20 6
v 8 21 6
v 8 22 6
v 8 23 6
v -8 2 5
v -8 3 5
v -8 21 5
v -8 22 5
v -7 23 5
v -7 24 5
v -4 2 5
v -4 3 5
v 4 2 5
v 4 3 5
v 7 23 5
v 7 24 5
v 8 2 5
v 8 3 5
v 8 21 5
v 8 22 5
v -2 24 -0
v -2 25 -0
v 2 24 -0
v 2 25 -0
v -2 24 -4
v -2 25 -4
v 2 24 -4
v 2 25 -4
v -8 2 -9
v -8 3 -9
v -8 21 -9
v -8 22 -9
v -7 23 -9
v -7 24 -9
v 7 23 -9
v 7 24 -9
v 8 2 -9
v 8 3 -9
v 8 21 -9
v 8 22 -9
v -8 0 -10
v -8 2 -10
v -8 3 -10
v -8 4 -10
v -8 20 -10
v -8 21 -10
v -8 22 -10
v -8 23 -10
v 8 0 -10
v 8 2 -10
v 8 3 -10
v 8 4 -10
v 8 20 -10
v 8 21 -10
v 8 22 -10
v 8 23 -10
v -4 0 10
v -3 0 10
v 3 0 10
v 4 0 10
v -8 0 6
v -4 0 6
v 4 0 6
v 8 0 6
v -3 0 5
v 3 0 5
v -8 0 -10
v 8 0 -10
v -8 3 6
v -4 3 6
v 4 3 6
v 8 3 6
v -8 3 5
v -4 3 5
v 4 3 5
v 8 3 5
v -8 3 -9
v 8 3 -9
v -8 3 -10
v 8 3 -10
v -8 20 6
v 8 20 6
v -8 20 -10
v 8 20 -10
v -8 22 6
v 8 22 6
v -8 22 5
v 8 22 5
v -8 22 -9
v 8 22 -9
v -8 22 -10
v 8 22 -10
v -4 1 10
v -3 1 10
v 3 1 10
v 4 1 10
v -4 1 9
v -3 1 9
v 3 1 9
v 4 1 9
v -4 2 9
v -3 2 9
v 3 2 9
v 4 2 9
v -4 2 8
v -3 2 8
v 3 2 8
v 4 2 8
v -8 2 6
v -4 2 6
v 4 2 6
v 8 2 6
v -8 2 5
v -4 2 5
v 4 2 5
v 8 2 5
v -8 2 -9
v 8 2 -9
v -8 2 -10
v 8 2 -10
v -4 3 8
v -3 3 8
v 3 3 8
v 4 3 8
v -4 3 7
v -3 3 7
v 3 3 7
v 4 3 7
v -4 4 7
v -3 4 7
v 3 4 7
v 4 4 7
v -8 4 6
v -4 4 6
v 4 4 6
v 8 4 6
v -3 4 5
v 3 4 5
v -8 4 -10
v 8 4 -10
v -8 21 6
v 8 21 6
v -8 21 5
v 8 21 5
v -8 21 -9
v 8 21 -9
v -8 21 -10
v 8 21 -10
v -8 23 6
v 8 23 6
v -7 23 5
v 7 23 5
v -7 23 -9
v 7 23 -9
v -8 23 -10
v 8 23 -10
v -7 24 5
v 7 24 5
v -2 24 -0
v 2 24 -0
v -2 24 -4
v 2 24 -4
v -7 24 -9
v 7 24 -9
v -2 25 -0
v 2 25 -0
v -2 25 -4
v 2 25 -4

# faces
f 3/2/1 2/2/1 1/2/1
f 4/2/1 2/2/1 3/2/1
f 5/2/1 2/2/1 4/2/1
f 6/2/1 2/2/1 5/2/1
f 8/3/1 5/3/1 4/3/1
f 9/3/1 5/3/1 8/3/1
f 11/2/1 8/2/1 7/2/1
f 11/2/1 10/2/1 9/2/1
f 11/2/1 9/2/1 8/2/1
f 12/2/1 10/2/1 11/2/1
f 15/2/1 14/2/1 13/2/1
f 16/2/1 14/2/1 15/2/1
f 17/2/1 14/2/1 16/2/1
f 18/2/1 14/2/1 17/2/1
f 20/3/1 17/3/1 16/3/1
f 21/3/1 17/3/1 20/3/1
f 23/2/1 20/2/1 19/2/1
f 23/2/1 22/2/1 21/2/1
f 23/2/1 21/2/1 20/2/1
f 24/2/1 22/2/1 23/2/1
f 27/2/1 26/2/1 25/2/1
f 28/2/1 26/2/1 27/2/1
f 31/2/1 30/2/1 29/2/1
f 32/2/1 30/2/1 31/2/1
f 33/2/1 30/2/1 32/2/1
f 34/2/1 30/2/1 33/2/1
f 35/2/1 30/2/1 34/2/1
f 37/2/1 35/2/1 34/2/1
f 38/2/1 35/2/1 37/2/1
f 39/3/1 36/3/1 35/3/1
f 39/2/1 35/2/1 38/2/1
f 40/3/1 36/3/1 39/3/1
f 41/2/1 39/2/1 38/2/1
f 42/2/1 39/2/1 41/2/1
f 45/1/1 44/1/1 43/1/1
f 46/1/1 44/1/1 45/1/1
f 47/1/2 48/1/2 49/1/2
f 49/1/2 48/1/2 50/1/2
f 51/2/2 52/2/2 53/2/2
f 53/2/2 52/2/2 54/2/2
f 54/2/2 52/2/2 55/2/2
f 55/2/2 52/2/2 56/2/2
f 56/2/2 52/2/2 57/2/2
f 56/2/2 57/2/2 59/2/2
f 59/2/2 57/2/2 60/2/2
f 57/3/2 58/3/2 61/3/2
f 60/2/2 57/2/2 61/2/2
f 61/3/2 58/3/2 62/3/2
f 60/2/2 61/2/2 63/2/2
f 63/2/2 61/2/2 64/2/2
f 65/2/2 66/2/2 67/2/2
f 67/2/2 66/2/2 68/2/2
f 69/2/2 70/2/2 71/2/2
f 71/2/2 70/2/2 72/2/2
f 72/2/2 70/2/2 73/2/2
f 73/2/2 70/2/2 74/2/2
f 72/3/2 73/3/2 76/3/2
f 76/3/2 73/3/2 77/3/2
f 75/2/2 76/2/2 79/2/2
f 77/2/2 78/2/2 79/2/2
f 76/2/2 77/2/2 79/2/2
f 79/2/2 78/2/2 80/2/2
f 81/2/2 82/2/2 83/2/2
f 83/2/2 82/2/2 84/2/2
f 84/2/2 82/2/2 85/2/2
f 85/2/2 82/2/2 86/2/2
f 84/3/2 85/3/2 88/3/2
f 88/3/2 85/3/2 89/3/2
f 87/2/2 88/2/2 91/2/2
f 89/2/2 90/2/2 91/2/2
f 88/2/2 89/2/2 91/2/2
f 91/2/2 90/2/2 92/2/2
f 95/2/3 94/2/3 93/2/3
f 96/2/3 94/2/3 95/2/3
f 97/1/3 96/1/3 95/1/3
f 98/1/3 96/1/3 97/1/3
f 99/2/3 98/2/3 97/2/3
f 100/2/3 98/2/3 99/2/3
f 103/2/3 102/2/3 101/2/3
f 104/2/3 102/2/3 103/2/3
f 105/1/3 104/1/3 103/1/3
f 106/1/3 104/1/3 105/1/3
f 107/2/3 106/2/3 105/2/3
f 108/2/3 106/2/3 107/2/3
f 111/2/3 110/2/3 109/2/3
f 112/2/3 110/2/3 111/2/3
f 113/1/3 112/1/3 111/1/3
f 114/1/3 112/1/3 113/1/3
f 115/2/3 114/2/3 113/2/3
f 116/2/3 114/2/3 115/2/3
f 119/2/3 118/2/3 117/2/3
f 120/2/3 118/2/3 119/2/3
f 121/1/3 120/1/3 119/1/3
f 122/1/3 120/1/3 121/1/3
f 123/2/3 122/2/3 121/2/3
f 124/2/3 122/2/3 123/2/3
f 133/2/3 126/2/3 125/2/3
f 134/2/3 126/2/3 133/2/3
f 135/2/3 128/2/3 127/2/3
f 136/2/3 128/2/3 135/2/3
f 141/2/3 138/2/3 137/2/3
f 142/2/3 138/2/3 141/2/3
f 143/2/3 140/2/3 139/2/3
f 144/2/3 140/2/3 143/2/3
f 145/2/3 130/2/3 129/2/3
f 146/2/3 130/2/3 145/2/3
f 147/2/3 132/2/3 131/2/3
f 148/2/3 132/2/3 147/2/3
f 155/3/3 150/3/3 149/3/3
f 156/3/3 150/3/3 155/3/3
f 159/2/3 154/2/3 153/2/3
f 160/2/3 154/2/3 159/2/3
f 161/3/3 158/3/3 157/3/3
f 162/3/3 158/3/3 161/3/3
f 163/3/3 152/3/3 151/3/3
f 164/3/3 152/3/3 163/3/3
f 167/1/3 166/1/3 165/1/3
f 168/1/3 166/1/3 167/1/3
f 169/1/4 170/1/4 171/1/4
f 171/1/4 170/1/4 172/1/4
f 177/2/4 178/2/4 179/2/4
f 179/2/4 178/2/4 180/2/4
f 173/3/4 174/3/4 181/3/4
f 181/3/4 174/3/4 182/3/4
f 175/3/4 176/3/4 183/3/4
f 183/3/4 176/3/4 184/3/4
f 185/2/4 186/2/4 193/2/4
f 193/2/4 186/2/4 194/2/4
f 187/2/4 188/2/4 195/2/4
f 195/2/4 188/2/4 196/2/4
f 189/2/4 190/2/4 197/2/4
f 197/2/4 190/2/4 198/2/4
f 191/2/4 192/2/4 199/2/4
f 199/2/4 192/2/4 200/2/4
f 206/2/5 202/2/5 201/2/5
f 207/2/5 204/2/5 203/2/5
f 209/2/5 206/2/5 205/2/5
f 209/1/5 203/1/5 202/1/5
f 209/2/5 202/2/5 206/2/5
f 210/2/5 208/2/5 207/2/5
f 210/1/5 203/1/5 209/1/5
f 210/2/5 207/2/5 203/2/5
f 211/2/5 209/2/5 205/2/5
f 211/2/5 210/2/5 209/2/5
f 212/2/5 208/2/5 210/2/5
f 212/2/5 210/2/5 211/2/5
f 217/2/5 214/2/5 213/2/5
f 218/2/5 214/2/5 217/2/5
f 219/2/5 216/2/5 215/2/5
f 220/2/5 216/2/5 219/2/5
f 223/2/5 222/2/5 221/2/5
f 224/2/5 222/2/5 223/2/5
f 227/2/5 226/2/5 225/2/5
f 228/2/5 226/2/5 227/2/5
f 231/2/5 230/2/5 229/2/5
f 232/2/5 230/2/5 231/2/5
f 235/2/5 234/2/5 233/2/5
f 236/2/5 234/2/5 235/2/5
f 237/2/6 238/2/6 241/2/6
f 238/1/6 239/1/6 242/1/6
f 241/2/6 238/2/6 242/2/6
f 239/2/6 240/2/6 243/2/6
f 242/1/6 239/1/6 243/1/6
f 243/2/6 240/2/6 244/2/6
f 245/2/6 246/2/6 249/2/6
f 246/1/6 247/1/6 250/1/6
f 249/2/6 246/2/6 250/2/6
f 247/2/6 248/2/6 251/2/6
f 250/1/6 247/1/6 251/1/6
f 251/2/6 248/2/6 252/2/6
f 253/2/6 254/2/6 257/2/6
f 257/2/6 254/2/6 258/2/6
f 255/2/6 256/2/6 259/2/6
f 259/2/6 256/2/6 260/2/6
f 261/2/6 262/2/6 263/2/6
f 263/2/6 262/2/6 264/2/6
f 265/2/6 266/2/6 269/2/6
f 266/1/6 267/1/6 270/1/6
f 269/2/6 266/2/6 270/2/6
f 267/2/6 268/2/6 271/2/6
f 270/1/6 267/1/6 271/1/6
f 271/2/6 268/2/6 272/2/6
f 273/2/6 274/2/6 278/2/6
f 275/2/6 276/2/6 279/2/6
f 277/2/6 278/2/6 281/2/6
f 274/1/6 275/1/6 281/1/6
f 278/2/6 274/2/6 281/2/6
f 279/2/6 280/2/6 282/2/6
f 281/1/6 275/1/6 282/1/6
f 275/2/6 279/2/6 282/2/6
f 277/2/6 281/2/6 283/2/6
f 281/2/6 282/2/6 283/2/6
f 282/2/6 280/2/6 284/2/6
f 283/2/6 282/2/6 284/2/6
f 285/2/6 286/2/6 287/2/6
f 287/2/6 286/2/6 288/2/6
f 289/2/6 290/2/6 291/2/6
f 291/2/6 290/2/6 292/2/6
f 293/2/6 294/2/6 295/2/6
f 295/2/6 294/2/6 296/2/6
f 293/2/6 295/2/6 297/2/6
f 296/2/6 294/2/6 298/2/6
f 293/2/6 297/2/6 299/2/6
f 297/2/6 298/2/6 299/2/6
f 298/2/6 294/2/6 300/2/6
f 299/2/6 298/2/6 300/2/6
f 301/2/6 302/2/6 303/2/6
f 303/2/6 302/2/6 304/2/6
f 301/2/6 303/2/6 305/2/6
f 304/2/6 302/2/6 306/2/6
f 301/2/6 305/2/6 307/2/6
f 305/2/6 306/2/6 307/2/6
f 306/2/6 302/2/6 308/2/6
f 307/2/6 306/2/6 308/2/6
f 309/1/6 310/1/6 311/1/6
f 311/1/6 310/1/6 312/1/6
