# MagicaVoxel @ Ephtracy

# group
g generator

# material
mtllib generator.mtl
usemtl palette

# normals
vn -1 0 0
vn 1 0 0
vn 0 0 1
vn 0 0 -1
vn 0 -1 0
vn 0 1 0

# texcoords
vt 0.220703 0.5
vt 0.224609 0.5
vt 0.228516 0.5

# verts
v -8 0 6
v -8 0 -10
v -8 1 6
v -8 1 -10
v -8 2 6
v -8 2 -10
v -8 3 6
v -8 3 -10
v -8 4 6
v -8 4 -10
v -8 20 6
v -8 20 -10
v -8 21 6
v -8 21 -10
v -8 22 6
v -8 22 -10
v -8 23 6
v -8 23 -10
v -8 24 6
v -8 24 -10
v -4 0 10
v -4 0 6
v -4 1 10
v -4 1 9
v -4 1 6
v -4 2 9
v -4 2 8
v -4 2 6
v -4 3 8
v -4 3 7
v -4 3 6
v -4 4 7
v -4 4 6
v -2 24 -0
v -2 24 -4
v -2 25 -0
v -2 25 -4
v 2 24 -0
v 2 24 -4
v 2 25 -0
v 2 25 -4
v 4 0 10
v 4 0 6
v 4 1 10
v 4 1 9
v 4 1 6
v 4 2 9
v 4 2 8
v 4 2 6
v 4 3 8
v 4 3 7
v 4 3 6
v 4 4 7
v 4 4 6
v 8 0 6
v 8 0 -10
v 8 1 6
v 8 1 -10
v 8 2 6
v 8 2 -10
v 8 3 6
v 8 3 -10
v 8 4 6
v 8 4 -10
v 8 20 6
v 8 20 -10
v 8 21 6
v 8 21 -10
v 8 22 6
v 8 22 -10
v 8 23 6
v 8 23 -10
v 8 24 6
v 8 24 -10
v -4 0 10
v -4 1 10
v -3 0 10
v -3 1 10
v 3 0 10
v 3 1 10
v 4 0 10
v 4 1 10
v -4 1 9
v -4 2 9
v -3 1 9
v -3 2 9
v 3 1 9
v 3 2 9
v 4 1 9
v 4 2 9
v -4 2 8
v -4 3 8
v -3 2 8
v -3 3 8
v 3 2 8
v 3 3 8
v 4 2 8
v 4 3 8
v -4 3 7
v -4 4 7
v -3 3 7
v -3 4 7
v 3 3 7
v 3 4 7
v 4 3 7
v 4 4 7
v -8 0 6
v -8 1 6
v -8 2 6
v -8 3 6
v -8 4 6
v -8 20 6
v -8 21 6
v -8 22 6
v -8 23 6
v -8 24 6
v -4 0 6
v -4 1 6
v -4 2 6
v -4 3 6
v -4 4 6
v 4 0 6
v 4 1 6
v 4 2 6
v 4 3 6
v 4 4 6
v 8 0 6
v 8 1 6
v 8 2 6
v 8 3 6
v 8 4 6
v 8 20 6
v 8 21 6
v 8 22 6
v 8 23 6
v 8 24 6
v -2 24 -0
v -2 25 -0
v 2 24 -0
v 2 25 -0
v -2 24 -4
v -2 25 -4
v 2 24 -4
v 2 25 -4
v -8 0 -10
v -8 1 -10
v -8 2 -10
v -8 3 -10
v -8 4 -10
v -8 20 -10
v -8 21 -10
v -8 22 -10
v -8 23 -10
v -8 24 -10
v 8 0 -10
v 8 1 -10
v 8 2 -10
v 8 3 -10
v 8 4 -10
v 8 20 -10
v 8 21 -10
v 8 22 -10
v 8 23 -10
v 8 24 -10
v -4 0 10
v -3 0 10
v 3 0 10
v 4 0 10
v -3 0 9
v 3 0 9
v -8 0 6
v -4 0 6
v 4 0 6
v 8 0 6
v -8 0 -10
v 8 0 -10
v -8 20 6
v 8 20 6
v -8 20 -10
v 8 20 -10
v -4 1 10
v -3 1 10
v 3 1 10
v 4 1 10
v -4 1 9
v -3 1 9
v 3 1 9
v 4 1 9
v -4 2 9
v -3 2 9
v 3 2 9
v 4 2 9
v -4 2 8
v -3 2 8
v 3 2 8
v 4 2 8
v -4 3 8
v -3 3 8
v 3 3 8
v 4 3 8
v -4 3 7
v -3 3 7
v 3 3 7
v 4 3 7
v -4 4 7
v -3 4 7
v 3 4 7
v 4 4 7
v -8 4 6
v -4 4 6
v -3 4 6
v 3 4 6
v 4 4 6
v 8 4 6
v -8 4 -10
v 8 4 -10
v -8 24 6
v 8 24 6
v -2 24 -0
v 2 24 -0
v -2 24 -4
v 2 24 -4
v -8 24 -10
v 8 24 -10
v -2 25 -0
v 2 25 -0
v -2 25 -4
v 2 25 -4

# faces
f 3/2/1 2/2/1 1/2/1
f 4/2/1 2/2/1 3/2/1
f 5/3/1 4/3/1 3/3/1
f 6/3/1 4/3/1 5/3/1
f 7/2/1 6/2/1 5/2/1
f 8/2/1 6/2/1 7/2/1
f 9/1/1 8/1/1 7/1/1
f 10/1/1 8/1/1 9/1/1
f 13/2/1 12/2/1 11/2/1
f 14/2/1 12/2/1 13/2/1
f 15/3/1 14/3/1 13/3/1
f 16/3/1 14/3/1 15/3/1
f 17/2/1 16/2/1 15/2/1
f 18/2/1 16/2/1 17/2/1
f 19/1/1 18/1/1 17/1/1
f 20/1/1 18/1/1 19/1/1
f 23/2/1 22/2/1 21/2/1
f 24/2/1 22/2/1 23/2/1
f 25/2/1 22/2/1 24/2/1
f 26/2/1 25/2/1 24/2/1
f 27/2/1 25/2/1 26/2/1
f 28/2/1 25/2/1 27/2/1
f 29/2/1 28/2/1 27/2/1
f 30/2/1 28/2/1 29/2/1
f 31/2/1 28/2/1 30/2/1
f 32/2/1 31/2/1 30/2/1
f 33/2/1 31/2/1 32/2/1
f 36/2/1 35/2/1 34/2/1
f 37/2/1 35/2/1 36/2/1
f 38/2/2 39/2/2 40/2/2
f 40/2/2 39/2/2 41/2/2
f 42/2/2 43/2/2 44/2/2
f 44/2/2 43/2/2 45/2/2
f 45/2/2 43/2/2 46/2/2
f 45/2/2 46/2/2 47/2/2
f 47/2/2 46/2/2 48/2/2
f 48/2/2 46/2/2 49/2/2
f 48/2/2 49/2/2 50/2/2
f 50/2/2 49/2/2 51/2/2
f 51/2/2 49/2/2 52/2/2
f 51/2/2 52/2/2 53/2/2
f 53/2/2 52/2/2 54/2/2
f 55/2/2 56/2/2 57/2/2
f 57/2/2 56/2/2 58/2/2
f 57/3/2 58/3/2 59/3/2
f 59/3/2 58/3/2 60/3/2
f 59/2/2 60/2/2 61/2/2
f 61/2/2 60/2/2 62/2/2
f 61/1/2 62/1/2 63/1/2
f 63/1/2 62/1/2 64/1/2
f 65/2/2 66/2/2 67/2/2
f 67/2/2 66/2/2 68/2/2
f 67/3/2 68/3/2 69/3/2
f 69/3/2 68/3/2 70/3/2
f 69/2/2 70/2/2 71/2/2
f 71/2/2 70/2/2 72/2/2
f 71/1/2 72/1/2 73/1/2
f 73/1/2 72/1/2 74/1/2
f 77/2/3 76/2/3 75/2/3
f 78/2/3 76/2/3 77/2/3
f 79/1/3 78/1/3 77/1/3
f 80/1/3 78/1/3 79/1/3
f 81/2/3 80/2/3 79/2/3
f 82/2/3 80/2/3 81/2/3
f 85/2/3 84/2/3 83/2/3
f 86/2/3 84/2/3 85/2/3
f 87/1/3 86/1/3 85/1/3
f 88/1/3 86/1/3 87/1/3
f 89/2/3 88/2/3 87/2/3
f 90/2/3 88/2/3 89/2/3
f 93/2/3 92/2/3 91/2/3
f 94/2/3 92/2/3 93/2/3
f 95/1/3 94/1/3 93/1/3
f 96/1/3 94/1/3 95/1/3
f 97/2/3 96/2/3 95/2/3
f 98/2/3 96/2/3 97/2/3
f 101/2/3 100/2/3 99/2/3
f 102/2/3 100/2/3 101/2/3
f 103/1/3 102/1/3 101/1/3
f 104/1/3 102/1/3 103/1/3
f 105/2/3 104/2/3 103/2/3
f 106/2/3 104/2/3 105/2/3
f 117/2/3 108/2/3 107/2/3
f 118/3/3 109/3/3 108/3/3
f 118/2/3 108/2/3 117/2/3
f 119/2/3 110/2/3 109/2/3
f 119/3/3 109/3/3 118/3/3
f 120/1/3 111/1/3 110/1/3
f 120/2/3 110/2/3 119/2/3
f 121/1/3 111/1/3 120/1/3
f 127/2/3 123/2/3 122/2/3
f 128/3/3 124/3/3 123/3/3
f 128/2/3 123/2/3 127/2/3
f 129/2/3 125/2/3 124/2/3
f 129/3/3 124/3/3 128/3/3
f 130/1/3 126/1/3 125/1/3
f 130/2/3 125/2/3 129/2/3
f 131/1/3 126/1/3 130/1/3
f 132/2/3 113/2/3 112/2/3
f 133/3/3 114/3/3 113/3/3
f 133/2/3 113/2/3 132/2/3
f 134/2/3 115/2/3 114/2/3
f 134/3/3 114/3/3 133/3/3
f 135/1/3 116/1/3 115/1/3
f 135/2/3 115/2/3 134/2/3
f 136/1/3 116/1/3 135/1/3
f 139/2/3 138/2/3 137/2/3
f 140/2/3 138/2/3 139/2/3
f 141/2/4 142/2/4 143/2/4
f 143/2/4 142/2/4 144/2/4
f 145/2/4 146/2/4 155/2/4
f 146/3/4 147/3/4 156/3/4
f 155/2/4 146/2/4 156/2/4
f 147/2/4 148/2/4 157/2/4
f 156/3/4 147/3/4 157/3/4
f 148/1/4 149/1/4 158/1/4
f 157/2/4 148/2/4 158/2/4
f 158/1/4 149/1/4 159/1/4
f 150/2/4 151/2/4 160/2/4
f 151/3/4 152/3/4 161/3/4
f 160/2/4 151/2/4 161/2/4
f 152/2/4 153/2/4 162/2/4
f 161/3/4 152/3/4 162/3/4
f 153/1/4 154/1/4 163/1/4
f 162/2/4 153/2/4 163/2/4
f 163/1/4 154/1/4 164/1/4
f 169/2/5 166/2/5 165/2/5
f 169/1/5 167/1/5 166/1/5
f 170/2/5 168/2/5 167/2/5
f 170/1/5 167/1/5 169/1/5
f 172/2/5 169/2/5 165/2/5
f 172/2/5 170/2/5 169/2/5
f 173/2/5 168/2/5 170/2/5
f 173/2/5 170/2/5 172/2/5
f 175/2/5 172/2/5 171/2/5
f 175/2/5 174/2/5 173/2/5
f 175/2/5 173/2/5 172/2/5
f 176/2/5 174/2/5 175/2/5
f 179/2/5 178/2/5 177/2/5
f 180/2/5 178/2/5 179/2/5
f 181/2/6 182/2/6 185/2/6
f 182/1/6 183/1/6 186/1/6
f 185/2/6 182/2/6 186/2/6
f 183/2/6 184/2/6 187/2/6
f 186/1/6 183/1/6 187/1/6
f 187/2/6 184/2/6 188/2/6
f 189/2/6 190/2/6 193/2/6
f 190/1/6 191/1/6 194/1/6
f 193/2/6 190/2/6 194/2/6
f 191/2/6 192/2/6 195/2/6
f 194/1/6 191/1/6 195/1/6
f 195/2/6 192/2/6 196/2/6
f 197/2/6 198/2/6 201/2/6
f 198/1/6 199/1/6 202/1/6
f 201/2/6 198/2/6 202/2/6
f 199/2/6 200/2/6 203/2/6
f 202/1/6 199/1/6 203/1/6
f 203/2/6 200/2/6 204/2/6
f 205/2/6 206/2/6 210/2/6
f 206/1/6 207/1/6 211/1/6
f 210/2/6 206/2/6 211/2/6
f 207/2/6 208/2/6 212/2/6
f 211/1/6 207/1/6 212/1/6
f 212/2/6 208/2/6 213/2/6
f 210/1/6 211/1/6 215/1/6
f 213/1/6 214/1/6 215/1/6
f 212/1/6 213/1/6 215/1/6
f 211/1/6 212/1/6 215/1/6
f 209/1/6 210/1/6 215/1/6
f 215/1/6 214/1/6 216/1/6
f 217/1/6 218/1/6 219/1/6
f 219/1/6 218/1/6 220/1/6
f 217/1/6 219/1/6 221/1/6
f 220/1/6 218/1/6 222/1/6
f 217/1/6 221/1/6 223/1/6
f 221/1/6 222/1/6 223/1/6
f 222/1/6 218/1/6 224/1/6
f 223/1/6 222/1/6 224/1/6
f 225/2/6 226/2/6 227/2/6
f 227/2/6 226/2/6 228/2/6
